<svg xmlns="http://www.w3.org/2000/svg" width="375" viewBox="0 0 375 375" height="375" version="1.0"><defs><clipPath id="a"><path d="M 212.355469 157.292969 L 219.855469 157.292969 L 219.855469 164.792969 L 212.355469 164.792969 Z M 212.355469 157.292969"/></clipPath></defs><g clip-path="url(#a)"><path fill="#0275D8" d="M 219.855469 161.042969 C 219.855469 161.539062 219.761719 162.015625 219.570312 162.476562 C 219.378906 162.9375 219.109375 163.339844 218.757812 163.691406 C 218.40625 164.042969 218 164.316406 217.542969 164.507812 C 217.082031 164.695312 216.605469 164.792969 216.105469 164.792969 C 215.609375 164.792969 215.128906 164.695312 214.671875 164.507812 C 214.210938 164.316406 213.804688 164.042969 213.453125 163.691406 C 213.101562 163.339844 212.832031 162.9375 212.640625 162.476562 C 212.453125 162.015625 212.355469 161.539062 212.355469 161.042969 C 212.355469 160.542969 212.453125 160.066406 212.640625 159.605469 C 212.832031 159.148438 213.101562 158.742188 213.453125 158.390625 C 213.804688 158.039062 214.210938 157.765625 214.671875 157.578125 C 215.128906 157.386719 215.609375 157.292969 216.105469 157.292969 C 216.605469 157.292969 217.082031 157.386719 217.542969 157.578125 C 218 157.765625 218.40625 158.039062 218.757812 158.390625 C 219.109375 158.742188 219.378906 159.148438 219.570312 159.605469 C 219.761719 160.066406 219.855469 160.542969 219.855469 161.042969 Z M 219.855469 161.042969"/></g><g fill="#FFF"><g><g><path d="M 19.71875 -23.859375 L 19.71875 -26.597656 L 2.28125 -26.597656 L 2.28125 0 L 5.015625 0 L 5.015625 -11.929688 L 17.171875 -11.929688 L 17.171875 -14.667969 L 5.015625 -14.667969 L 5.015625 -23.859375 Z M 19.71875 -23.859375" transform="translate(107.692 200.25)"/></g></g></g><g fill="#FFF"><g><g><path d="M 14.628906 -26.824219 C 7.144531 -26.824219 1.710938 -20.746094 1.710938 -13.261719 C 1.710938 -5.773438 7.144531 0.304688 14.628906 0.304688 C 22.113281 0.304688 27.507812 -5.773438 27.507812 -13.261719 C 27.507812 -20.746094 22.113281 -26.824219 14.628906 -26.824219 Z M 14.628906 -2.394531 C 8.625 -2.394531 4.519531 -7.257812 4.519531 -13.261719 C 4.519531 -19.261719 8.625 -24.125 14.628906 -24.125 C 20.59375 -24.125 24.695312 -19.261719 24.695312 -13.261719 C 24.695312 -7.257812 20.59375 -2.394531 14.628906 -2.394531 Z M 14.628906 -2.394531" transform="translate(127.98 200.25)"/></g></g></g><g fill="#FFF"><g><g><path d="M 14.628906 -26.824219 C 7.144531 -26.824219 1.710938 -20.746094 1.710938 -13.261719 C 1.710938 -5.773438 7.144531 0.304688 14.628906 0.304688 C 22.113281 0.304688 27.507812 -5.773438 27.507812 -13.261719 C 27.507812 -20.746094 22.113281 -26.824219 14.628906 -26.824219 Z M 14.628906 -2.394531 C 8.625 -2.394531 4.519531 -7.257812 4.519531 -13.261719 C 4.519531 -19.261719 8.625 -24.125 14.628906 -24.125 C 20.59375 -24.125 24.695312 -19.261719 24.695312 -13.261719 C 24.695312 -7.257812 20.59375 -2.394531 14.628906 -2.394531 Z M 14.628906 -2.394531" transform="translate(157.196 200.25)"/></g></g></g><g fill="#FFF"><g><g><path d="M 10.636719 -26.597656 L 2.46875 -26.597656 L 2.46875 0 L 10.636719 0 C 18.808594 0 24.050781 -5.925781 24.050781 -13.261719 C 24.050781 -20.59375 18.921875 -26.597656 10.636719 -26.597656 Z M 10.410156 -2.734375 C 7.828125 -2.734375 6.230469 -2.734375 5.207031 -2.734375 L 5.207031 -23.859375 L 10.449219 -23.859375 C 17.058594 -23.859375 21.125 -19.113281 21.125 -13.261719 C 21.125 -7.445312 17.210938 -2.734375 10.410156 -2.734375 Z M 10.410156 -2.734375" transform="translate(186.993 200.25)"/></g></g></g><g fill="#FFF"><g><g><path d="M 2.46875 -26.597656 L 2.46875 0 L 5.207031 0 L 5.207031 -26.597656 Z M 2.46875 -26.597656" transform="translate(212.562 200.25)"/></g></g></g><g fill="#FFF"><g><g><path d="M 25.457031 -13.640625 L 14.398438 -13.640625 L 14.398438 -10.90625 L 22.722656 -10.90625 L 22.722656 -6.382812 C 20.933594 -4.066406 17.820312 -2.394531 14.476562 -2.394531 C 8.472656 -2.394531 4.140625 -7.257812 4.140625 -13.261719 C 4.140625 -19.261719 8.472656 -24.125 14.476562 -24.125 C 18.125 -24.125 21.164062 -22.304688 23.023438 -19.566406 L 25.457031 -20.746094 C 23.140625 -24.429688 19.1875 -26.824219 14.476562 -26.824219 C 6.992188 -26.824219 1.328125 -20.746094 1.328125 -13.261719 C 1.328125 -5.773438 6.992188 0.304688 14.476562 0.304688 C 19.1875 0.304688 23.175781 -2.128906 25.457031 -5.773438 Z M 25.457031 -13.640625" transform="translate(220.236 200.25)"/></g></g></g><g fill="#FFF"><g><g><path d="M 14.628906 -26.824219 C 7.144531 -26.824219 1.710938 -20.746094 1.710938 -13.261719 C 1.710938 -5.773438 7.144531 0.304688 14.628906 0.304688 C 22.113281 0.304688 27.507812 -5.773438 27.507812 -13.261719 C 27.507812 -20.746094 22.113281 -26.824219 14.628906 -26.824219 Z M 14.628906 -2.394531 C 8.625 -2.394531 4.519531 -7.257812 4.519531 -13.261719 C 4.519531 -19.261719 8.625 -24.125 14.628906 -24.125 C 20.59375 -24.125 24.695312 -19.261719 24.695312 -13.261719 C 24.695312 -7.257812 20.59375 -2.394531 14.628906 -2.394531 Z M 14.628906 -2.394531" transform="translate(247.4 200.25)"/></g></g></g></svg>